inDegrees=yes
name=ik_lifting_orientations
DataType=double
version=3
OpenSimVersion=4.5-2024-01-10-34fd6af
endheader
time	pelvis_tilt	pelvis_list	pelvis_rotation	pelvis_tx	pelvis_ty	pelvis_tz	hip_flexion_r	hip_adduction_r	hip_rotation_r	knee_angle_r	knee_angle_r_beta	ankle_angle_r	subtalar_angle_r	mtp_angle_r	hip_flexion_l	hip_adduction_l	hip_rotation_l	knee_angle_l	knee_angle_l_beta	ankle_angle_l	subtalar_angle_l	mtp_angle_l	lumbar_extension	lumbar_bending	lumbar_rotation	arm_flex_r	arm_add_r	arm_rot_r	elbow_flex_r	pro_sup_r	wrist_flex_r	wrist_dev_r	arm_flex_l	arm_add_l	arm_rot_l	elbow_flex_l	pro_sup_l	wrist_flex_l	wrist_dev_l
1.82	-0.8914056472742097	-1.432488312799395	-88.92624585569054	0	0.9399999998679526	0	44.24980034447966	-10.09377633027457	0	58.9604353045905	1.02905372447421	-5.027978120765728	0	0	44.24980034447966	-10.09377633027457	0	58.9604353045905	1.02905372447421	-5.027978120765728	0	0	-5.888531914212642	-0.4766525279800525	7.487756294975133	43.91804715936632	-39.5110424512812	24.33434713941362	80.53236677222374	3.141396797537526	0	0	0	-11.63219400228907	0	86.89149554477983	3.141396797537526	0	0
1.83	-0.9664121997439071	-1.617688050958124	-88.37206543561071	0	0.9399999998679526	0	44.25111970805291	-10.09320403078973	0	58.96187239727903	1.029078806473281	-5.027755978545428	0	0	44.25111970805291	-10.09320403078973	0	58.96187239727903	1.029078806473281	-5.027755978545428	0	0	-5.650001445663104	-0.2522839924377405	6.876127864111875	46.99445172068913	-37.74484159232802	27.44275322574283	75.19292330716328	3.13754568113215	0	0	0	-11.63523264581458	0	86.8953060369365	3.13754568113215	0	0
1.84	-0.9760603861783486	-1.738877721931353	-88.42964898442933	0	0.9399999998679526	0	44.25258726740174	-10.09257063577162	0	58.96347198266127	1.029106724504868	-5.027510626213273	0	0	44.25258726740174	-10.09257063577162	0	58.96347198266127	1.029106724504868	-5.027510626213273	0	0	-5.29110733508434	-0.121806603334411	6.943158616763126	49.88572670654401	-35.70048734112194	30.2750066359935	69.63898741757141	3.133259090020485	0	0	0	-11.63861639183242	0	86.8995474105738	3.133259090020485	0	0
1.85	-1.047092534360593	-1.793940517547782	-88.32391367816864	0	0.9399999998679526	0	44.25381382676309	-10.09204440235683	0	58.96481095882141	1.029130094047468	-5.027307230813645	0	0	44.25381382676309	-10.09204440235683	0	58.96481095882141	1.029130094047468	-5.027307230813645	0	0	-4.856291107182593	0.06710715662290373	6.912294654211563	52.10247919267781	-33.84073197327675	32.36256457503092	64.51317839004481	3.129672855118241	0	0	0	-11.64144934061874	0	86.90309581630059	3.129672855118241	0	0
1.86	-1.161993905041864	-1.982825556522665	-87.90043241738954	0	0.9399999998679526	0	44.25497846284653	-10.09154687281919	0	58.96608289533548	1.029152293527515	-5.027115273271129	0	0	44.25497846284653	-10.09154687281919	0	58.96608289533548	1.029152293527515	-5.027115273271129	0	0	-4.561972308684553	0.323373222813522	6.483429327490294	54.2108656705601	-31.83116073406955	34.34881919008269	59.37903975202677	3.126265882241332	0	0	0	-11.64414153704421	0	86.9064668512146	3.126265882241332	0	0
1.87	-1.205398904642648	-2.162509412729897	-87.72886564998811	0	0.9399999998679526	0	44.25539845140812	-10.09136818556369	0	58.96654362731485	1.029160334817524	-5.02704636400087	0	0	44.25539845140812	-10.09136818556369	0	58.96654362731485	1.029160334817524	-5.02704636400087	0	0	-4.174938733559054	0.4961161291203525	6.182900167428986	56.010910069623	-29.60983559575983	36.27283899754168	54.28578993291342	3.125035137872686	0	0	0	-11.64511564909249	0	86.90768461356001	3.125035137872686	0	0
1.88	-1.235831836296494	-2.232458094572584	-87.78842337548326	0	0.9399999998679526	0	44.25583542906425	-10.09118418607359	0	58.96702667462058	1.029168765583452	-5.026975561832726	0	0	44.25583542906425	-10.09118418607359	0	58.96702667462058	1.029168765583452	-5.026975561832726	0	0	-3.749888785705898	0.6085736624782454	5.989884898815105	57.47161816421975	-27.43626869776151	37.78641916652126	49.52765720047609	3.123750702326769	0	0	0	-11.6461348947568	0	86.90895550125217	3.123750702326769	0	0
1.89	-1.312632038504608	-2.41310359430947	-87.3119414301279	0	0.9399999998679526	0	44.25625404528856	-10.09100772030213	0	58.96748850266218	1.029176826003356	-5.026907668241362	0	0	44.25625404528856	-10.09100772030213	0	58.96748850266218	1.029176826003356	-5.026907668241362	0	0	-3.433250763850882	0.8083459301988121	5.075123446276236	58.88161108588785	-25.05302699001573	39.30056299469312	44.76284085431046	3.12252102086148	0	0	0	-11.64711011243558	0	86.91017221229991	3.12252102086148	0	0
1.9	-1.381834921807367	-2.34833000734282	-86.76715823187359	0	0.9399999998679526	0	44.25668497139092	-10.09082678165587	0	58.96796498841621	1.029185142248603	-5.026838126594257	0	0	44.25668497139092	-10.09082678165587	0	58.96796498841621	1.029185142248603	-5.026838126594257	0	0	-2.741340561440139	1.019341920787484	4.090581865608558	59.88439252280556	-22.82961363996256	40.59445972278808	40.23772733990592	3.121253923717724	0	0	0	-11.64811582170437	0	86.91142594454162	3.121253923717724	0	0
1.91	-1.37360221075576	-2.35392982274838	-86.81241754547491	0	0.9399999998679526	0	44.25706238679268	-10.09067202976526	0	58.96838982182096	1.029192556990288	-5.026778935708576	0	0	44.25706238679268	-10.09067202976526	0	58.96838982182096	1.029192556990288	-5.026778935708576	0	0	-2.132505723793666	1.114242577273631	3.812351069944271	60.58993301293719	-20.92847162982688	41.42082467051205	36.01309575535621	3.12013634500656	0	0	0	-11.64900814440743	0	86.91253173642201	3.12013634500656	0	0
1.92	-1.373441877137253	-2.226613250688033	-86.69530695367253	0	0.9399999998679526	0	44.25746234288643	-10.09050736697497	0	58.9688382816264	1.029200384090456	-5.026715919613056	0	0	44.25746234288643	-10.09050736697497	0	58.9688382816264	1.029200384090456	-5.026715919613056	0	0	-1.50658062193773	1.209738676521111	3.439171825524252	60.6906124073861	-19.97403697424846	41.87656452490415	33.99128626038448	3.118953683277198	0	0	0	-11.64995128487922	0	86.91370192470224	3.118953683277198	0	0
1.93	-1.395460027392473	-2.155234292332561	-86.45017602851357	0	0.9399999998679526	0	44.25789662583634	-10.09032522699967	0	58.96931754128849	1.029208748749531	-5.026645996035348	0	0	44.25789662583634	-10.09032522699967	0	58.96931754128849	1.029208748749531	-5.026645996035348	0	0	-1.01254622712377	1.323761737925991	2.933722696290888	61.17160181239262	-18.46095070922488	42.5189157349517	31.35881374654624	3.117677213613149	0	0	0	-11.65096397362431	0	86.9149649305629	3.117677213613149	0	0
1.94	-1.404614988793121	-1.975692969954196	-86.26359591382911	0	0.9399999998679526	0	44.25826788251419	-10.09016782083308	0	58.96972322162048	1.029215829207035	-5.026585464789518	0	0	44.25826788251419	-10.09016782083308	0	58.96972322162048	1.029215829207035	-5.026585464789518	0	0	-0.5159284285789565	1.416562077719107	2.735234124101506	61.49820818111505	-17.37688037274465	42.57095388319532	29.53098280333518	3.116589987531114	0	0	0	-11.65182377163976	0	86.91604068842112	3.116589987531114	0	0
1.95	-1.424361766480169	-1.844429106997888	-86.29902527987412	0	0.9399999998679526	0	44.25844202008872	-10.09009431525334	0	58.96991401724971	1.029219159218964	-5.026557229656319	0	0	44.25844202008872	-10.09009431525334	0	58.96991401724971	1.029219159218964	-5.026557229656319	0	0	-0.009873916831016471	1.509249263052713	2.91782342767435	61.51816634785973	-16.6480344016352	42.07698364797632	27.68893184185525	3.116079451239313	0	0	0	-11.65222788560699	0	86.91654583957357	3.116079451239313	0	0
1.96	-1.369046652788591	-1.853824740669693	-86.39133554915558	0	0.9399999998679526	0	44.25861884324853	-10.09001967576527	0	58.9701076819402	1.029222539305457	-5.02652856248912	0	0	44.25861884324853	-10.09001967576527	0	58.9701076819402	1.029222539305457	-5.02652856248912	0	0	0.3297616764870429	1.550173357253694	3.348419702493868	61.24411924295305	-16.56534888856891	41.50073398465698	26.39278084126846	3.115561091161296	0	0	0	-11.65263815286014	0	86.91705873198205	3.115561091161296	0	0
1.97	-1.339398159264766	-1.658199456646496	-86.32895303655015	0	0.9399999998679526	0	44.25884941623772	-10.08992271955813	0	58.9703608694952	1.029226958261917	-5.026491357245838	0	0	44.25884941623772	-10.08992271955813	0	58.9703608694952	1.029226958261917	-5.026491357245838	0	0	0.8332746436905888	1.55354530110207	3.716471444279078	61.01200094728678	-16.5928422402968	40.99450501028408	25.32988681887758	3.114884449426897	0	0	0	-11.65317416941811	0	86.91772823658222	3.114884449426897	0	0
1.98	-1.368819714332811	-1.347617583019983	-86.27223095691291	0	0.9399999998679526	0	44.25901271361537	-10.08985395561243	0	58.97053992512124	1.029230083372136	-5.026464965856531	0	0	44.25901271361537	-10.08985395561243	0	58.97053992512124	1.029230083372136	-5.026464965856531	0	0	1.296961930214413	1.564694210403085	3.740700665199819	60.85577059814692	-16.54241151484975	40.80396793299413	24.43316661535529	3.114405478283144	0	0	0	-11.6535534288004	0	86.91820215556778	3.114405478283144	0	0
1.99	-1.337951964827264	-1.246222995674882	-86.25704812364005	0	0.9399999998679526	0	44.25914429073601	-10.08979852088413	0	58.97068410013752	1.029232599700869	-5.026443690111106	0	0	44.25914429073601	-10.08979852088413	0	58.97068410013752	1.029232599700869	-5.026443690111106	0	0	1.544928384042392	1.543214315822636	3.77312855913167	60.54067916320619	-16.50990859564435	40.71638234024498	23.91753393465375	3.114019633405773	0	0	0	-11.65385888697709	0	86.91858393056711	3.114019633405773	0	0
